<svg id="visual" viewBox="0 0 900 600" width="900" height="600" xmlns="http://www.w3.org/2000/svg" xmlns:xlink="http://www.w3.org/1999/xlink" version="1.1"><path d="M0 127L15 133C30 139 60 151 90 162C120 173 150 183 180 177C210 171 240 149 270 143C300 137 330 147 360 157C390 167 420 177 450 177C480 177 510 167 540 153C570 139 600 121 630 120C660 119 690 135 720 150C750 165 780 179 810 174C840 169 870 145 885 133L900 121L900 0L885 0C870 0 840 0 810 0C780 0 750 0 720 0C690 0 660 0 630 0C600 0 570 0 540 0C510 0 480 0 450 0C420 0 390 0 360 0C330 0 300 0 270 0C240 0 210 0 180 0C150 0 120 0 90 0C60 0 30 0 15 0L0 0Z" fill="#ffffff"></path><path d="M0 187L15 195C30 203 60 219 90 227C120 235 150 235 180 228C210 221 240 207 270 202C300 197 330 201 360 210C390 219 420 233 450 235C480 237 510 227 540 215C570 203 600 189 630 187C660 185 690 195 720 208C750 221 780 237 810 234C840 231 870 209 885 198L900 187L900 119L885 131C870 143 840 167 810 172C780 177 750 163 720 148C690 133 660 117 630 118C600 119 570 137 540 151C510 165 480 175 450 175C420 175 390 165 360 155C330 145 300 135 270 141C240 147 210 169 180 175C150 181 120 171 90 160C60 149 30 137 15 131L0 125Z" fill="#fdeee4"></path><path d="M0 259L15 268C30 277 60 295 90 301C120 307 150 301 180 292C210 283 240 271 270 264C300 257 330 255 360 264C390 273 420 293 450 297C480 301 510 289 540 273C570 257 600 237 630 237C660 237 690 257 720 274C750 291 780 305 810 303C840 301 870 283 885 274L900 265L900 185L885 196C870 207 840 229 810 232C780 235 750 219 720 206C690 193 660 183 630 185C600 187 570 201 540 213C510 225 480 235 450 233C420 231 390 217 360 208C330 199 300 195 270 200C240 205 210 219 180 226C150 233 120 233 90 225C60 217 30 201 15 193L0 185Z" fill="#f9dec9"></path><path d="M0 421L15 423C30 425 60 429 90 429C120 429 150 425 180 420C210 415 240 409 270 406C300 403 330 403 360 410C390 417 420 431 450 438C480 445 510 445 540 436C570 427 600 409 630 408C660 407 690 423 720 430C750 437 780 435 810 436C840 437 870 441 885 443L900 445L900 263L885 272C870 281 840 299 810 301C780 303 750 289 720 272C690 255 660 235 630 235C600 235 570 255 540 271C510 287 480 299 450 295C420 291 390 271 360 262C330 253 300 255 270 262C240 269 210 281 180 290C150 299 120 305 90 299C60 293 30 275 15 266L0 257Z" fill="#f9dec9"></path><path d="M0 487L15 490C30 493 60 499 90 503C120 507 150 509 180 505C210 501 240 491 270 485C300 479 330 477 360 484C390 491 420 507 450 513C480 519 510 515 540 508C570 501 600 491 630 493C660 495 690 509 720 515C750 521 780 519 810 520C840 521 870 525 885 527L900 529L900 443L885 441C870 439 840 435 810 434C780 433 750 435 720 428C690 421 660 405 630 406C600 407 570 425 540 434C510 443 480 443 450 436C420 429 390 415 360 408C330 401 300 401 270 404C240 407 210 413 180 418C150 423 120 427 90 427C60 427 30 423 15 421L0 419Z" fill="#fdeee4"></path><path d="M0 601L15 601C30 601 60 601 90 601C120 601 150 601 180 601C210 601 240 601 270 601C300 601 330 601 360 601C390 601 420 601 450 601C480 601 510 601 540 601C570 601 600 601 630 601C660 601 690 601 720 601C750 601 780 601 810 601C840 601 870 601 885 601L900 601L900 527L885 525C870 523 840 519 810 518C780 517 750 519 720 513C690 507 660 493 630 491C600 489 570 499 540 506C510 513 480 517 450 511C420 505 390 489 360 482C330 475 300 477 270 483C240 489 210 499 180 503C150 507 120 505 90 501C60 497 30 491 15 488L0 485Z" fill="#ffffff"></path></svg>